{
  "accessors": [
    {
      "bufferView": 1,
      "componentType": 5126,
      "count": 65532,
      "max": [
        186.42123413085938,
        117.16305541992188,
        301.61138916015625
      ],
      "min": [
        0,
        3.4141998291015625,
        35.3211669921875
      ],
      "type": "VEC3"
    },
    {
      "bufferView": 1,
      "byteOffset": 786384,
      "componentType": 5126,
      "count": 65532,
      "max": [
        0.99998164176940918,
        0.99999421834945679,
        0.99999868869781494
      ],
      "min": [
        -0.99990719556808472,
        -0.99998509883880615,
        -0.9999086856842041
      ],
      "type": "VEC3"
    },
    {
      "bufferView": 0,
      "componentType": 5125,
      "count": 305871,
      "max": [
        65531
      ],
      "min": [
        0
      ],
      "type": "SCALAR"
    },
    {
      "bufferView": 1,
      "byteOffset": 1572768,
      "componentType": 5126,
      "count": 65532,
      "max": [
        181.31202697753906,
        132.500244140625,
        289.82122802734375
      ],
      "min": [
        6.7047042846679688,
        1.7322235107421875,
        7.490264892578125
      ],
      "type": "VEC3"
    },
    {
      "bufferView": 1,
      "byteOffset": 2359152,
      "componentType": 5126,
      "count": 65532,
      "max": [
        0.99996745586395264,
        0.99999678134918213,
        0.99998235702514648
      ],
      "min": [
        -0.99991524219512939,
        -0.99999022483825684,
        -0.99951159954071045
      ],
      "type": "VEC3"
    },
    {
      "bufferView": 0,
      "byteOffset": 1223484,
      "componentType": 5125,
      "count": 300954,
      "max": [
        65531
      ],
      "min": [
        0
      ],
      "type": "SCALAR"
    },
    {
      "bufferView": 1,
      "byteOffset": 3145536,
      "componentType": 5126,
      "count": 65532,
      "max": [
        179.48095703125,
        130.44259643554688,
        231.63809204101562
      ],
      "min": [
        0.8857421875,
        1.7322235107421875,
        1.9722900390625
      ],
      "type": "VEC3"
    },
    {
      "bufferView": 1,
      "byteOffset": 3931920,
      "componentType": 5126,
      "count": 65532,
      "max": [
        0.99987024068832397,
        0.99997878074645996,
        0.99999135732650757
      ],
      "min": [
        -0.99998980760574341,
        -0.99997502565383911,
        -0.99998825788497925
      ],
      "type": "VEC3"
    },
    {
      "bufferView": 0,
      "byteOffset": 2427300,
      "componentType": 5125,
      "count": 303342,
      "max": [
        65531
      ],
      "min": [
        0
      ],
      "type": "SCALAR"
    },
    {
      "bufferView": 1,
      "byteOffset": 4718304,
      "componentType": 5126,
      "count": 65532,
      "max": [
        179.70892333984375,
        132.19300842285156,
        270.715087890625
      ],
      "min": [
        1.723388671875,
        0.80420684814453125,
        0.27663421630859375
      ],
      "type": "VEC3"
    },
    {
      "bufferView": 1,
      "byteOffset": 5504688,
      "componentType": 5126,
      "count": 65532,
      "max": [
        0.99996745586395264,
        0.99983423948287964,
        0.99999946355819702
      ],
      "min": [
        -0.99998527765274048,
        -0.99998807907104492,
        -0.99999696016311646
      ],
      "type": "VEC3"
    },
    {
      "bufferView": 0,
      "byteOffset": 3640668,
      "componentType": 5125,
      "count": 309276,
      "max": [
        65531
      ],
      "min": [
        0
      ],
      "type": "SCALAR"
    },
    {
      "bufferView": 1,
      "byteOffset": 6291072,
      "componentType": 5126,
      "count": 65532,
      "max": [
        179.43161010742188,
        132.3939208984375,
        298.5567626953125
      ],
      "min": [
        1.1326522827148438,
        0,
        0
      ],
      "type": "VEC3"
    },
    {
      "bufferView": 1,
      "byteOffset": 7077456,
      "componentType": 5126,
      "count": 65532,
      "max": [
        0.99994677305221558,
        0.99998599290847778,
        0.99998921155929565
      ],
      "min": [
        -0.99997353553771973,
        -0.99998968839645386,
        -0.99998408555984497
      ],
      "type": "VEC3"
    },
    {
      "bufferView": 0,
      "byteOffset": 4877772,
      "componentType": 5125,
      "count": 304581,
      "max": [
        65531
      ],
      "min": [
        0
      ],
      "type": "SCALAR"
    },
    {
      "bufferView": 1,
      "byteOffset": 7863840,
      "componentType": 5126,
      "count": 65532,
      "max": [
        186.42123413085938,
        132.02120971679688,
        300.7230224609375
      ],
      "min": [
        1.3162994384765625,
        1.6683578491210938,
        0
      ],
      "type": "VEC3"
    },
    {
      "bufferView": 1,
      "byteOffset": 8650224,
      "componentType": 5126,
      "count": 65532,
      "max": [
        0.99987387657165527,
        0.99997496604919434,
        0.99999195337295532
      ],
      "min": [
        -0.99998980760574341,
        -0.99997997283935547,
        -0.99998825788497925
      ],
      "type": "VEC3"
    },
    {
      "bufferView": 0,
      "byteOffset": 6096096,
      "componentType": 5125,
      "count": 281214,
      "max": [
        65531
      ],
      "min": [
        0
      ],
      "type": "SCALAR"
    },
    {
      "bufferView": 1,
      "byteOffset": 9436608,
      "componentType": 5126,
      "count": 65532,
      "max": [
        185.209228515625,
        132.41973876953125,
        300.83328247070312
      ],
      "min": [
        0.4618682861328125,
        0.04459381103515625,
        0.1139678955078125
      ],
      "type": "VEC3"
    },
    {
      "bufferView": 1,
      "byteOffset": 10222992,
      "componentType": 5126,
      "count": 65532,
      "max": [
        0.99998164176940918,
        0.99985647201538086,
        0.99999988079071045
      ],
      "min": [
        -0.99997127056121826,
        -0.9999924898147583,
        -0.99999696016311646
      ],
      "type": "VEC3"
    },
    {
      "bufferView": 0,
      "byteOffset": 7220952,
      "componentType": 5125,
      "count": 199293,
      "max": [
        65531
      ],
      "min": [
        0
      ],
      "type": "SCALAR"
    },
    {
      "bufferView": 1,
      "byteOffset": 11009376,
      "componentType": 5126,
      "count": 35107,
      "max": [
        186.22415161132812,
        132.33132934570312,
        301.44268798828125
      ],
      "min": [
        0.032073974609375,
        0.59754180908203125,
        0.17787933349609375
      ],
      "type": "VEC3"
    },
    {
      "bufferView": 1,
      "byteOffset": 11430660,
      "componentType": 5126,
      "count": 35107,
      "max": [
        0.99994784593582153,
        0.99997270107269287,
        0.99999427795410156
      ],
      "min": [
        -0.99997353553771973,
        -0.99988287687301636,
        -0.99984294176101685
      ],
      "type": "VEC3"
    },
    {
      "bufferView": 0,
      "byteOffset": 8018124,
      "componentType": 5125,
      "count": 52731,
      "max": [
        35106
      ],
      "min": [
        0
      ],
      "type": "SCALAR"
    }
  ],
  "asset": {
    "extras": {
      "author": "Artec 3D (https://sketchfab.com/artec3d)",
      "license": "CC-BY-4.0 (http://creativecommons.org/licenses/by/4.0/)",
      "source": "https://sketchfab.com/models/346eeb1323ac4eddbdb6f6c7cd277d68",
      "title": "Saraswati"
    },
    "generator": "Sketchfab-3.18.6",
    "version": "2.0"
  },
  "bufferViews": [
    {
      "buffer": 0,
      "byteLength": 8229048,
      "byteOffset": 0,
      "name": "floatBufferViews",
      "target": 34963
    },
    {
      "buffer": 0,
      "byteLength": 11851944,
      "byteOffset": 8229048,
      "byteStride": 12,
      "name": "floatBufferViews",
      "target": 34962
    }
  ],
  "buffers": [
    {
      "byteLength": 20080992,
      "uri": "scene.bin"
    }
  ],
  "materials": [
    {
      "doubleSided": true,
      "emissiveFactor": [
        0,
        0,
        0
      ],
      "name": "Scene_-_Root",
      "pbrMetallicRoughness": {
        "baseColorFactor": [
          0.77520961799999999,
          0.51189001889999997,
          0.13808058349999999,
          1
        ],
        "metallicFactor": 1,
        "roughnessFactor": 0.59999999999999998
      }
    }
  ],
  "meshes": [
    {
      "primitives": [
        {
          "attributes": {
            "NORMAL": 1,
            "POSITION": 0
          },
          "indices": 2,
          "material": 0,
          "mode": 4
        }
      ]
    },
    {
      "primitives": [
        {
          "attributes": {
            "NORMAL": 4,
            "POSITION": 3
          },
          "indices": 5,
          "material": 0,
          "mode": 4
        }
      ]
    },
    {
      "primitives": [
        {
          "attributes": {
            "NORMAL": 7,
            "POSITION": 6
          },
          "indices": 8,
          "material": 0,
          "mode": 4
        }
      ]
    },
    {
      "primitives": [
        {
          "attributes": {
            "NORMAL": 10,
            "POSITION": 9
          },
          "indices": 11,
          "material": 0,
          "mode": 4
        }
      ]
    },
    {
      "primitives": [
        {
          "attributes": {
            "NORMAL": 13,
            "POSITION": 12
          },
          "indices": 14,
          "material": 0,
          "mode": 4
        }
      ]
    },
    {
      "primitives": [
        {
          "attributes": {
            "NORMAL": 16,
            "POSITION": 15
          },
          "indices": 17,
          "material": 0,
          "mode": 4
        }
      ]
    },
    {
      "primitives": [
        {
          "attributes": {
            "NORMAL": 19,
            "POSITION": 18
          },
          "indices": 20,
          "material": 0,
          "mode": 4
        }
      ]
    },
    {
      "primitives": [
        {
          "attributes": {
            "NORMAL": 22,
            "POSITION": 21
          },
          "indices": 23,
          "material": 0,
          "mode": 4
        }
      ]
    }
  ],
  "nodes": [
    {
      "children": [
        1
      ],
      "name": "RootNode (gltf orientation matrix)",
      "rotation": [
        -0.70710678118654746,
        -0,
        -0,
        0.70710678118654757
      ]
    },
    {
      "children": [
        2
      ],
      "matrix": [
        0.99817740917205811,
        0.0061871320940554142,
        0.060030266642570496,
        0,
        0.0019944463856518269,
        0.99080502986907959,
        -0.13528263568878174,
        0,
        -0.06031530350446701,
        0.13515579700469971,
        0.98898684978485107,
        0,
        1.9668818712234497,
        -4.4055485725402832,
        0.41314017772674561,
        1
      ],
      "name": "RootNode (model correction matrix)"
    },
    {
      "children": [
        3
      ],
      "matrix": [
        1,
        0,
        0,
        0,
        0,
        1,
        0,
        0,
        0,
        0,
        1,
        0,
        -99.302261352539062,
        -68.562828063964844,
        -118.08785247802734,
        1
      ],
      "name": "Shiva.OBJ.cleaner.materialmerger.gles"
    },
    {
      "children": [
        4,
        5,
        6,
        7,
        8,
        9,
        10,
        11
      ],
      "name": ""
    },
    {
      "mesh": 0,
      "name": ""
    },
    {
      "mesh": 1,
      "name": ""
    },
    {
      "mesh": 2,
      "name": ""
    },
    {
      "mesh": 3,
      "name": ""
    },
    {
      "mesh": 4,
      "name": ""
    },
    {
      "mesh": 5,
      "name": ""
    },
    {
      "mesh": 6,
      "name": ""
    },
    {
      "mesh": 7,
      "name": ""
    }
  ],
  "scene": 0,
  "scenes": [
    {
      "name": "OSG_Scene",
      "nodes": [
        0
      ]
    }
  ]
}

